USFL
nRows=237
nColumns=2
inDegrees=yes
endheader
time	tib_ant_r	
3.42619	 56.347604	
3.45946	 56.412858	
3.49272	 56.382145	
3.52598	 56.402070	
3.55925	 56.357242	
3.59251	 56.395064	
3.62578	 56.438093	
3.65904	 56.469214	
3.6923	 56.474073	
3.72557	 56.508316	
3.75883	 56.520765	
3.7921	 56.531908	
3.82536	 56.559121	
3.85862	 56.563525	
3.89189	 56.542075	
3.92515	 56.488786	
3.95842	 56.457527	
3.99168	 56.427397	
4.02494	 56.301083	
4.05821	 56.330715	
4.09147	 56.277664	
4.12474	 56.185547	
4.158	 56.214460	
4.19126	 56.117643	
4.22453	 56.114941	
4.25779	 56.157346	
4.29106	 56.224772	
4.32432	 56.307031	
4.35758	 56.478731	
4.39085	 56.393452	
4.42411	 56.366280	
4.45738	 54.782502	
4.49064	 54.881310	
4.5239	 55.135280	
4.55717	 49.757888	
4.59043	 49.707401	
4.6237	 49.728232	
4.65696	 49.804868	
4.69022	 49.789616	
4.72349	 49.818329	
4.75675	 49.965907	
4.79002	 49.886493	
4.82328	 49.903412	
4.85654	 49.896288	
4.88981	 49.839867	
4.92307	 49.902212	
4.95634	 49.884549	
4.9896	 49.874907	
5.02286	 49.946737	
5.05613	 49.959580	
5.08939	 50.001098	
5.12266	 50.046562	
5.15592	 50.060425	
5.18918	 50.071610	
5.22245	 50.153644	
5.25571	 50.186886	
5.28898	 50.241141	
5.32224	 50.218014	
5.3555	 50.195355	
5.38877	 50.241020	
5.42203	 50.243102	
5.4553	 50.219679	
5.48856	 50.076066	
5.52182	 50.011887	
5.55509	 49.756179	
5.58835	 49.699359	
5.62162	 49.708996	
5.65488	 49.778961	
5.68814	 49.732265	
5.72141	 49.757784	
5.75467	 49.820154	
5.78794	 49.806869	
5.8212	 49.868829	
5.85446	 49.909620	
5.88773	 49.919963	
5.92099	 49.940508	
5.95426	 50.077748	
5.98752	 50.183162	
6.02078	 50.349008	
6.05405	 50.337502	
6.08731	 50.363875	
6.12058	 50.354432	
6.15384	 50.382198	
6.1871	 50.424597	
6.22037	 50.392831	
6.25363	 50.411096	
6.2869	 50.421820	
6.32016	 50.459882	
6.35342	 50.552846	
6.38669	 50.708300	
6.41995	 50.915304	
6.45322	 51.095528	
6.48648	 51.299750	
6.51974	 51.244771	
6.55301	 51.190782	
6.58627	 51.162578	
6.61954	 51.177125	
6.6528	 51.152977	
6.68606	 51.174734	
6.71933	 51.225587	
6.75259	 51.283824	
6.78586	 51.307314	
6.81912	 51.281389	
6.85238	 51.245165	
6.88565	 51.224047	
6.91891	 51.157845	
6.95218	 51.166194	
6.98544	 51.124746	
7.0187	 51.118155	
7.05197	 51.190765	
7.08523	 51.222591	
7.1185	 51.264137	
7.15176	 51.238503	
7.18502	 51.230735	
7.21829	 51.252917	
7.25155	 51.249314	
7.28482	 51.155287	
7.31808	 51.088946	
7.35134	 51.090167	
7.38461	 51.054063	
7.41787	 51.122985	
7.45114	 51.165921	
7.4844	 51.131053	
7.51766	 51.108210	
7.55093	 51.033779	
7.58419	 51.017321	
7.61746	 51.025364	
7.65072	 50.989210	
7.68398	 50.998105	
7.71725	 50.960828	
7.75051	 50.910221	
7.78378	 50.951223	
7.81704	 50.963872	
7.8503	 50.987549	
7.88357	 50.993910	
7.91683	 50.977418	
7.9501	 50.901000	
7.98336	 50.980229	
8.01662	 50.972953	
8.04989	 50.948970	
8.08315	 50.881443	
8.11642	 50.819986	
8.14968	 50.833981	
8.18294	 50.839527	
8.21621	 50.826058	
8.24947	 50.791852	
8.28274	 50.781472	
8.316	 50.841644	
8.34926	 50.869925	
8.38253	 50.899594	
8.41579	 50.949292	
8.44906	 50.927225	
8.48232	 50.927171	
8.51558	 50.900358	
8.54885	 50.908829	
8.58211	 51.000244	
8.61538	 50.894071	
8.64864	 50.835362	
8.6819	 50.801746	
8.71517	 50.755933	
8.74843	 50.751036	
8.7817	 50.769755	
8.81496	 50.769415	
8.84822	 50.763418	
8.88149	 50.787577	
8.91475	 50.805865	
8.94802	 50.817870	
8.98128	 50.796522	
9.01454	 50.814525	
9.04781	 50.863389	
9.08107	 50.847694	
9.11434	 50.859763	
9.1476	 50.925074	
9.18086	 50.965191	
9.21413	 51.008490	
9.24739	 50.992304	
9.28066	 50.973589	
9.31392	 50.935266	
9.34718	 50.948946	
9.38045	 50.972026	
9.41371	 50.989643	
9.44698	 51.004295	
9.48024	 51.033077	
9.5135	 51.039245	
9.54677	 51.075572	
9.58003	 51.067262	
9.6133	 51.071682	
9.64656	 51.138041	
9.67982	 51.213868	
9.71309	 51.246724	
9.74635	 51.245953	
9.77962	 51.276482	
9.81288	 51.262674	
9.84614	 51.228908	
9.87941	 51.259039	
9.91267	 51.285416	
9.94594	 51.320406	
9.9792	 51.311012	
10.0125	 51.294355	
10.0457	 51.338547	
10.079	 51.284176	
10.1123	 51.205834	
10.1455	 51.197107	
10.1788	 51.145586	
10.212	 51.120545	
10.2453	 51.096664	
10.2786	 51.009690	
10.3118	 50.962429	
10.3451	 50.919522	
10.3784	 50.823335	
10.4116	 50.719655	
10.4449	 50.705292	
10.4782	 50.620385	
10.5114	 50.440797	
10.5447	 50.432987	
10.578	 50.311710	
10.6112	 50.133512	
10.6445	 50.008757	
10.6777	 49.996929	
10.711	 50.016891	
10.7443	 50.051887	
10.7775	 49.975565	
10.8108	 49.922509	
10.8441	 49.881650	
10.8773	 49.888920	
10.9106	 49.882980	
10.9439	 49.885031	
10.9771	 49.925446	
11.0104	 49.953852	
11.0436	 49.952664	
11.0769	 49.970018	
11.1102	 50.029529	
11.1434	 49.997968	
11.1767	 49.985404	
11.21	 49.990947	
11.2432	 49.960217	
11.2765	 49.998967	
